<?xml version="1.0" encoding="UTF-8"?>
<svg xmlns="http://www.w3.org/2000/svg" viewBox="0 0 217 36" id="comicbook-logo-1" height="100%" width="100%" preserveAspectRatio="xMinYMid meet">
      <title>Comicbook Main Logo</title>
      <path d="M0 17.8C0 27.5 7.9 35.4 17.5 35.4 27.2 35.4 35.1 27.5 35.1 17.8 35.1 8.1 27.2 0.3 17.5 0.3 7.9 0.3 0 8.1 0 17.8Z" fill="#FAC315" id="circle"></path>
      <path d="M4.4 17.7C4.4 13.8 7.4 11.1 11.3 11.1 14.4 11.1 16 12.8 16.9 14.5L14 15.9C13.6 14.9 12.5 14 11.3 14 9.2 14 7.7 15.6 7.7 17.7 7.7 19.8 9.2 21.4 11.3 21.4 12.5 21.4 13.6 20.6 14 19.6L16.9 20.9C16.1 22.5 14.4 24.3 11.3 24.3 7.4 24.3 4.4 21.6 4.4 17.7M26.6 20.2C26.6 19.5 26.1 19 25.2 19L21.6 19 21.6 21.3 25.2 21.3C26.1 21.3 26.6 20.9 26.6 20.2L26.6 20.2zM26.3 15.1C26.3 14.5 25.8 14.1 25.1 14.1L21.6 14.1 21.6 16.2 25.1 16.2C25.8 16.2 26.3 15.8 26.3 15.1L26.3 15.1zM17.9 24.1L17.9 11.3 25.9 11.3C28.7 11.3 30 13 30 14.6 30 16.2 28.9 17.2 27.6 17.5 29.1 17.7 30.3 19 30.3 20.6 30.3 22.5 28.9 24.1 26.2 24.1L17.9 24.1z" fill="#182A50" id="cb"></path>
      <path d="M41.9 18C41.9 15.3 42.8 13 44.7 11.3 46.5 9.6 48.8 8.7 51.7 8.7 53.4 8.7 54.9 9 56.2 9.6 57.4 10.3 58.4 11.1 59 12L55.3 15.4C54.5 14.3 53.4 13.7 51.9 13.7 50.7 13.7 49.7 14.1 48.9 14.9 48.1 15.7 47.7 16.7 47.7 18 47.7 19.4 48.1 20.4 48.9 21.2 49.7 22 50.7 22.4 51.9 22.4 53.3 22.4 54.5 21.8 55.3 20.7L59 24.1C58.4 25.1 57.4 25.8 56.2 26.5 54.9 27.1 53.4 27.5 51.7 27.5 48.9 27.5 46.5 26.6 44.7 24.8 42.8 23.1 41.9 20.8 41.9 18ZM59.2 18C59.2 15.4 60.1 13.2 61.9 11.4 63.6 9.6 66 8.7 68.9 8.7 71.9 8.7 74.3 9.6 76 11.4 77.8 13.2 78.7 15.4 78.7 18 78.7 20.7 77.8 22.9 76 24.7 74.3 26.5 71.9 27.5 68.9 27.5 66 27.5 63.6 26.5 61.9 24.7 60.1 22.9 59.2 20.7 59.2 18ZM65.1 18C65.1 19.3 65.4 20.3 66.1 21.2 66.8 22 67.7 22.4 68.9 22.4 70.1 22.4 71.1 22 71.8 21.2 72.5 20.3 72.8 19.3 72.8 18 72.8 16.8 72.5 15.8 71.8 15 71.1 14.1 70.1 13.7 68.9 13.7 67.7 13.7 66.8 14.1 66.1 15 65.4 15.8 65.1 16.8 65.1 18ZM80.5 27L80.5 9.1 86.2 9.1 86.2 11.3C86.6 10.7 87.4 10.1 88.5 9.5 89.6 9 90.8 8.7 92.1 8.7 94.7 8.7 96.4 9.7 97.1 11.9 97.7 11 98.5 10.2 99.7 9.6 100.8 9 102 8.7 103.3 8.7 105 8.7 106.3 9.1 107.3 10 108.2 10.9 108.7 12.3 108.7 14L108.7 27 103 27 103 16.1C103 14.5 102.2 13.7 100.6 13.7 99.4 13.7 98.3 14.3 97.4 15.5L97.4 27 91.7 27 91.7 16.1C91.7 14.5 90.9 13.7 89.4 13.7 88.2 13.7 87.1 14.3 86.2 15.5L86.2 27 80.5 27ZM111.2 4.2C111.2 3.3 111.6 2.6 112.2 1.9 112.8 1.3 113.6 1 114.5 1 115.4 1 116.2 1.3 116.8 1.9 117.5 2.6 117.8 3.3 117.8 4.2 117.8 5.2 117.5 5.9 116.8 6.6 116.2 7.2 115.4 7.5 114.5 7.5 113.6 7.5 112.8 7.2 112.2 6.6 111.6 5.9 111.2 5.2 111.2 4.2ZM111.7 27L111.7 9.1 117.3 9.1 117.3 27 111.7 27ZM119.1 18C119.1 15.3 120 13 121.9 11.3 123.7 9.6 126 8.7 128.9 8.7 130.6 8.7 132.1 9 133.4 9.6 134.6 10.3 135.6 11.1 136.2 12L132.5 15.4C131.7 14.3 130.6 13.7 129.1 13.7 127.9 13.7 126.9 14.1 126.1 14.9 125.3 15.7 124.9 16.7 124.9 18 124.9 19.4 125.3 20.4 126.1 21.2 126.9 22 127.9 22.4 129.1 22.4 130.5 22.4 131.7 21.8 132.5 20.7L136.2 24.1C135.6 25.1 134.6 25.8 133.4 26.5 132.1 27.1 130.6 27.5 128.9 27.5 126.1 27.5 123.7 26.6 121.9 24.8 120 23.1 119.1 20.8 119.1 18ZM137.6 27L137.6 2.3 143.3 2.3 143.3 11.2C144.6 9.5 146.4 8.7 148.6 8.7 150.9 8.7 152.7 9.5 154.2 11.2 155.7 12.9 156.4 15.2 156.4 18 156.4 21 155.7 23.3 154.2 24.9 152.7 26.6 150.9 27.5 148.6 27.5 146.5 27.5 144.7 26.6 143.3 24.9L143.3 27 137.6 27ZM143.3 20.8C143.6 21.3 144.1 21.7 144.8 22 145.4 22.3 146.1 22.4 146.7 22.4 147.8 22.4 148.8 22 149.5 21.2 150.3 20.4 150.6 19.4 150.6 18 150.6 16.7 150.3 15.7 149.5 14.9 148.8 14.1 147.8 13.7 146.7 13.7 146.1 13.7 145.4 13.9 144.8 14.2 144.1 14.5 143.6 14.9 143.3 15.3L143.3 20.8ZM157.1 18C157.1 15.4 158 13.2 159.7 11.4 161.5 9.6 163.8 8.7 166.8 8.7 169.7 8.7 172.1 9.6 173.9 11.4 175.7 13.2 176.5 15.4 176.5 18 176.5 20.7 175.7 22.9 173.9 24.7 172.1 26.5 169.7 27.5 166.8 27.5 163.8 27.5 161.5 26.5 159.7 24.7 158 22.9 157.1 20.7 157.1 18ZM162.9 18C162.9 19.3 163.3 20.3 164 21.2 164.7 22 165.6 22.4 166.8 22.4 168 22.4 168.9 22 169.7 21.2 170.4 20.3 170.7 19.3 170.7 18 170.7 16.8 170.4 15.8 169.7 15 168.9 14.1 168 13.7 166.8 13.7 165.6 13.7 164.7 14.1 164 15 163.3 15.8 162.9 16.8 162.9 18ZM177.2 18C177.2 15.4 178.1 13.2 179.8 11.4 181.6 9.6 183.9 8.7 186.9 8.7 189.9 8.7 192.2 9.6 194 11.4 195.8 13.2 196.6 15.4 196.6 18 196.6 20.7 195.8 22.9 194 24.7 192.2 26.5 189.9 27.5 186.9 27.5 183.9 27.5 181.6 26.5 179.8 24.7 178.1 22.9 177.2 20.7 177.2 18ZM183 18C183 19.3 183.4 20.3 184.1 21.2 184.8 22 185.7 22.4 186.9 22.4 188.1 22.4 189 22 189.8 21.2 190.5 20.3 190.8 19.3 190.8 18 190.8 16.8 190.5 15.8 189.8 15 189 14.1 188.1 13.7 186.9 13.7 185.7 13.7 184.8 14.1 184.1 15 183.4 15.8 183 16.8 183 18ZM198.4 27L198.4 2.3 204.1 2.3 204.1 16.3 209.6 9.1 216.5 9.1 209.9 17.3 216.8 27 209.8 27 205.8 20.7 204.1 22.7 204.1 27 198.4 27Z" fill="#000" id="comicbook"></path>
    </svg>